<?xml version="1.0" encoding="UTF-8"?>
<svg id="Camada_1" xmlns="http://www.w3.org/2000/svg" version="1.1" viewBox="0 0 2500 2500">
  <!-- Generator: Adobe Illustrator 29.5.0, SVG Export Plug-In . SVG Version: 2.1.0 Build 137)  -->
  <g>
    <path d="M407.68,626.35v78.28h76.05v58.71h-76.61v119.1c0,26.28,14.54,39.14,35.79,39.14,10.62,0,22.93-3.35,32.99-8.39l19.01,58.15c-19.57,7.83-35.79,11.18-56.48,11.74-59.83,2.24-98.97-31.87-98.97-100.65v-119.1h-51.44v-58.71h51.44v-71.02l68.22-7.27Z"/>
    <path d="M602.82,588.32v153.21c24.6-31.87,54.8-41.38,86.11-41.38,78.28,0,112.95,53.12,112.95,134.2v145.39h-68.22v-144.83c0-50.33-26.28-71.57-62.63-71.57-40.26,0-68.22,34.11-68.22,75.49v140.91h-68.22v-391.42h68.22Z"/>
    <path d="M917.62,866.23c4.47,34.11,34.11,58.71,82.2,58.71,25.16,0,58.15-9.51,73.81-25.72l43.62,43.06c-29.08,30.2-76.61,44.73-118.54,44.73-95.06,0-151.54-58.71-151.54-147.06s57.04-144.27,146.5-144.27,149.86,57.04,139.23,170.55h-215.28ZM1067.48,809.75c-4.47-35.79-32.43-53.68-71.57-53.68-36.91,0-67.1,17.89-77.17,53.68h148.74Z"/>
  </g>
  <g>
    <path d="M529.02,1168.18h65.42v275.67h-64.31l-3.35-40.26c-15.66,32.43-58.71,48.09-89.47,48.65-81.64.56-142.03-49.77-142.03-146.5s63.19-144.83,143.71-144.27c36.91,0,72.13,17.33,87.79,44.73l2.24-38.02ZM363.5,1305.74c0,52.56,36.35,83.88,81.64,83.88,107.36,0,107.36-167.19,0-167.19-45.29,0-81.64,30.75-81.64,83.32Z"/>
    <path d="M736.46,1090.46v78.28h76.05v58.71h-76.61v119.1c0,26.28,14.54,39.14,35.79,39.14,10.62,0,22.93-3.35,32.99-8.39l19.01,58.15c-19.57,7.83-35.79,11.18-56.48,11.74-59.83,2.24-98.97-31.87-98.97-100.65v-119.1h-51.44v-58.71h51.44v-71.02l68.22-7.27Z"/>
    <path d="M931.61,1052.43v153.21c24.6-31.87,54.8-41.38,86.11-41.38,78.28,0,112.95,53.12,112.95,134.2v145.38h-68.22v-144.83c0-50.33-26.28-71.57-62.63-71.57-40.26,0-68.22,34.11-68.22,75.49v140.91h-68.22v-391.42h68.22Z"/>
    <path d="M1255.92,1052.99v390.86h-67.66v-390.86h67.66Z"/>
    <path d="M1373.9,1330.34c4.47,34.11,34.11,58.71,82.2,58.71,25.16,0,58.15-9.51,73.81-25.72l43.62,43.06c-29.08,30.2-76.61,44.73-118.54,44.73-95.06,0-151.54-58.71-151.54-147.06s57.04-144.27,146.5-144.27,149.86,57.04,139.23,170.55h-215.28ZM1523.76,1273.86c-4.47-35.79-32.43-53.68-71.57-53.68-36.9,0-67.1,17.89-77.17,53.68h148.74Z"/>
    <path d="M1726.18,1090.46v78.28h76.05v58.71h-76.61v119.1c0,26.28,14.54,39.14,35.79,39.14,10.62,0,22.93-3.35,32.99-8.39l19.01,58.15c-19.57,7.83-35.79,11.18-56.48,11.74-59.83,2.24-98.97-31.87-98.97-100.65v-119.1h-51.44v-58.71h51.44v-71.02l68.22-7.27Z"/>
    <path d="M1927.47,1090.46c0,53.12-80.52,53.12-80.52,0s80.52-53.12,80.52,0ZM1853.1,1167.06v276.79h68.22v-276.79h-68.22Z"/>
    <path d="M2219.35,1408.62c-31.87,31.31-65.42,43.62-106.24,43.62-79.96,0-146.5-48.09-146.5-145.94s66.54-145.94,146.5-145.94c39.14,0,69.34,11.18,99.53,40.82l-43.06,45.29c-16.22-14.54-36.35-21.81-55.36-21.81-45.85,0-79.4,33.55-79.4,81.64,0,52.56,35.79,80.52,78.28,80.52,21.81,0,43.62-6.15,60.39-22.93l45.85,44.73Z"/>
  </g>
  <g>
    <path d="M1122.85,1556.8l5.03,31.87c21.25-34.11,49.77-39.14,77.73-39.14s55.92,11.18,71.02,26.28l-30.75,59.27c-13.98-11.74-26.84-17.89-49.21-17.89-35.79,0-68.78,19.01-68.78,69.9v145.38h-68.22v-275.67h63.19Z"/>
    <path d="M1520.97,1556.8h65.42v275.67h-64.31l-3.35-40.26c-15.66,32.43-58.71,48.09-89.47,48.65-81.64.56-142.03-49.77-142.03-146.5s63.19-144.83,143.71-144.27c36.91,0,72.13,17.33,87.79,44.73l2.24-38.02ZM1355.46,1694.36c0,52.56,36.35,83.88,81.64,83.88,107.36,0,107.36-167.19,0-167.19-45.29,0-81.64,30.75-81.64,83.32Z"/>
    <path d="M1912.39,1556.24l-117.43,277.35h-73.81l-117.99-277.35h74.37l38.02,91.14,42.5,116.31,41.94-115.19,38.02-92.26h74.37Z"/>
    <path d="M2003.53,1718.96c4.47,34.11,34.11,58.71,82.2,58.71,25.16,0,58.15-9.51,73.81-25.72l43.62,43.06c-29.08,30.2-76.61,44.73-118.54,44.73-95.06,0-151.54-58.71-151.54-147.06s57.04-144.27,146.5-144.27,149.86,57.04,139.23,170.55h-215.28ZM2153.39,1662.48c-4.47-35.79-32.43-53.68-71.57-53.68-36.91,0-67.1,17.89-77.17,53.68h148.74Z"/>
  </g>
  <rect x="1318.16" y="840.58" width="781.35" height="67.1" transform="translate(3417.67 1748.26) rotate(180)"/>
  <circle cx="570.93" cy="1694.71" r="75.49"/>
  <circle cx="814.17" cy="1694.71" r="75.49"/>
</svg>