<?xml version="1.0" encoding="UTF-8"?>
<svg id="Camada_1" data-name="Camada 1" xmlns="http://www.w3.org/2000/svg" viewBox="0 0 2500 2500">
  <g>
    <path d="M495.87,724.76v69.78h67.79v52.34h-68.29v106.17c0,23.43,12.96,34.89,31.9,34.89,9.47,0,20.44-2.99,29.41-7.48l16.95,51.84c-17.44,6.98-31.9,9.97-50.34,10.47-53.33,1.99-88.22-28.41-88.22-89.72v-106.17h-45.86v-52.34h45.86v-63.3l60.81-6.48Z"/>
    <path d="M669.82,690.87v136.57c21.93-28.41,48.85-36.88,76.76-36.88,69.78,0,100.68,47.35,100.68,119.62v129.59h-60.81v-129.09c0-44.86-23.43-63.8-55.82-63.8-35.89,0-60.81,30.4-60.81,67.29v125.61h-60.81v-348.9h60.81Z"/>
    <path d="M950.44,938.59c3.99,30.41,30.41,52.34,73.27,52.34,22.43,0,51.84-8.47,65.79-22.93l38.88,38.38c-25.92,26.92-68.28,39.88-105.67,39.88-84.74,0-135.08-52.34-135.08-131.09s50.84-128.6,130.59-128.6,133.58,50.84,124.11,152.02h-191.9ZM1084.02,888.25c-3.99-31.9-28.91-47.85-63.8-47.85-32.9,0-59.81,15.95-68.78,47.85h132.58Z"/>
  </g>
  <g>
    <path d="M604.03,1207.75h58.32v245.73h-57.32l-2.99-35.89c-13.96,28.91-52.34,42.86-79.75,43.36-72.77.5-126.6-44.36-126.6-130.59s56.32-129.09,128.1-128.6c32.9,0,64.3,15.45,78.26,39.88l1.99-33.89ZM456.49,1330.36c0,46.85,32.4,74.77,72.77,74.77,95.7,0,95.7-149.03,0-149.03-40.37,0-72.77,27.41-72.77,74.26Z"/>
    <path d="M788.95,1138.47v69.78h67.79v52.33h-68.29v106.17c0,23.43,12.96,34.89,31.9,34.89,9.47,0,20.44-2.99,29.41-7.48l16.95,51.84c-17.45,6.98-31.9,9.97-50.34,10.47-53.33,1.99-88.22-28.41-88.22-89.72v-106.17h-45.86v-52.33h45.86v-63.3l60.81-6.48Z"/>
    <path d="M962.9,1104.57v136.57c21.93-28.41,48.85-36.89,76.76-36.89,69.78,0,100.68,47.35,100.68,119.63v129.59h-60.81v-129.1c0-44.86-23.43-63.8-55.83-63.8-35.89,0-60.81,30.41-60.81,67.29v125.61h-60.81v-348.9h60.81Z"/>
    <path d="M1252,1105.07v348.41h-60.31v-348.41h60.31Z"/>
    <path d="M1357.17,1352.3c3.99,30.41,30.4,52.34,73.27,52.34,22.43,0,51.84-8.47,65.79-22.93l38.88,38.38c-25.92,26.91-68.29,39.88-105.67,39.88-84.74,0-135.08-52.34-135.08-131.09s50.84-128.6,130.59-128.6,133.58,50.84,124.11,152.02h-191.9ZM1490.75,1301.95c-3.99-31.9-28.91-47.85-63.8-47.85-32.9,0-59.81,15.95-68.78,47.85h132.58Z"/>
    <path d="M1671.18,1138.47v69.78h67.79v52.33h-68.29v106.17c0,23.43,12.96,34.89,31.9,34.89,9.47,0,20.44-2.99,29.41-7.48l16.95,51.84c-17.44,6.98-31.9,9.97-50.34,10.47-53.33,1.99-88.22-28.41-88.22-89.72v-106.17h-45.86v-52.33h45.86v-63.3l60.81-6.48Z"/>
    <path d="M1850.61,1138.47c0,47.35-71.77,47.35-71.77,0s71.77-47.35,71.77,0ZM1784.32,1206.75v246.73h60.81v-246.73h-60.81Z"/>
    <path d="M2110.8,1422.08c-28.41,27.91-58.32,38.88-94.7,38.88-71.28,0-130.59-42.87-130.59-130.09s59.31-130.09,130.59-130.09c34.89,0,61.81,9.97,88.72,36.39l-38.38,40.37c-14.45-12.96-32.4-19.44-49.35-19.44-40.87,0-70.78,29.91-70.78,72.77,0,46.85,31.9,71.78,69.78,71.78,19.44,0,38.88-5.48,53.83-20.44l40.87,39.88Z"/>
  </g>
  <g>
    <path d="M435.06,1889.62v-188.91h-45.86v-53.33h45.86v-16.45c0-65.8,44.36-96.2,93.7-96.2,21.43,0,43.86,6.98,63.8,19.94l-22.43,45.36c-12.96-8.47-24.92-12.96-37.38-12.96-20.93,0-36.88,13.96-36.88,43.86v16.45h72.27v53.33h-72.27v188.91h-60.81Z"/>
    <path d="M667.83,1788.43c3.99,30.41,30.41,52.34,73.27,52.34,22.43,0,51.84-8.47,65.79-22.93l38.88,38.38c-25.92,26.91-68.29,39.88-105.67,39.88-84.73,0-135.08-52.34-135.08-131.09s50.84-128.6,130.59-128.6,133.58,50.84,124.11,152.02h-191.9ZM801.41,1738.09c-3.99-31.9-28.91-47.85-63.8-47.85-32.9,0-59.81,15.95-68.78,47.85h132.58Z"/>
    <path d="M1059.6,1709.18c-17.45-16.45-37.38-21.93-60.81-21.93-28.91,0-44.86,8.97-44.86,24.42s14.46,24.92,45.86,26.92c46.35,2.99,105.17,13.46,105.17,78.75,0,43.36-35.39,80.74-105.67,80.74-38.88,0-77.76-6.48-113.64-43.86l29.9-43.36c17.45,19.44,57.32,33.9,84.73,34.39,22.93.5,44.36-11.46,44.36-29.41,0-16.95-13.96-23.92-48.85-25.92-46.35-3.49-101.68-20.44-101.68-76.26s58.82-76.76,103.67-76.76c38.38,0,67.29,7.48,95.7,32.4l-33.89,39.87Z"/>
    <path d="M1229.57,1574.61v69.78h67.79v52.33h-68.29v106.17c0,23.43,12.96,34.89,31.9,34.89,9.47,0,20.44-2.99,29.41-7.48l16.95,51.84c-17.45,6.98-31.9,9.97-50.34,10.47-53.33,1.99-88.22-28.41-88.22-89.72v-106.17h-45.86v-52.33h45.86v-63.3l60.81-6.48Z"/>
    <path d="M1416.48,1574.61c0,47.35-71.78,47.35-71.78,0s71.78-47.35,71.78,0ZM1350.19,1642.89v246.73h60.81v-246.73h-60.81Z"/>
    <path d="M1715.54,1643.39l-104.67,247.22h-65.79l-105.17-247.22h66.29l33.89,81.24,37.88,103.67,37.38-102.68,33.89-82.24h66.29Z"/>
    <path d="M1932.36,1643.89h58.32v245.73h-57.32l-2.99-35.89c-13.96,28.91-52.34,42.86-79.75,43.36-72.77.5-126.6-44.36-126.6-130.59s56.32-129.09,128.1-128.6c32.9,0,64.3,15.45,78.26,39.88l1.99-33.89ZM1792.3,1766.5c0,46.85,32.4,74.77,72.77,74.77,95.7,0,95.7-149.03,0-149.03-40.37,0-72.77,27.41-72.77,74.26Z"/>
    <path d="M2104.82,1541.21v348.41h-60.31v-348.41h60.31Z"/>
  </g>
  <rect x="1287.54" y="888.3" width="696.49" height="51.09" transform="translate(3271.58 1827.7) rotate(180)"/>
</svg>